<svg width="159" height="43" viewBox="0 0 159 43" fill="none" xmlns="http://www.w3.org/2000/svg">
<path d="M0 34.1232L7.13199 40.0411C9.44634 41.9978 12.6581 43 16.3422 43C19.8845 43 24.6077 41.5205 26.9221 38.5139L22.4823 32.596L15.2086 26.5827C15.8699 25.9145 16.8145 25.485 17.948 25.485C19.4595 25.485 21.1598 26.2486 22.1044 27.4417L27.0638 22.6215C26.5442 21.9057 25.9302 21.2375 25.2217 20.6648L17.7119 14.4129C18.3731 14.9856 18.9871 15.606 19.4595 16.3219L14.5001 21.1421C13.65 19.9489 11.9496 19.1854 10.3437 19.1854C4.81763 19.1854 4.95933 28.6826 10.5327 28.6826C12.0913 28.7303 13.7917 27.8713 14.878 26.2963L19.3178 32.2142C19.2705 32.2142 15.8699 36.7003 8.73787 36.7003C5.00656 36.7003 2.0782 35.7936 0 34.1232Z" fill="#FF0099"/>
<path d="M32.55 39.8502C35.0061 41.9023 38.4068 43 42.1381 43C49.8841 43 55.7408 38.2753 55.7408 30.2575C55.7408 26.1054 54.0877 22.7647 51.4899 20.6171L45.1609 15.3674C44.8775 15.081 44.5469 14.7947 44.2163 14.5561L45.1609 15.3674C47.3336 17.515 48.1365 20.8557 48.1365 23.9578C48.1365 32.0233 41.9491 36.7003 34.5338 36.7003C31.0858 36.7003 28.1575 36.0322 26.1265 34.5527L32.55 39.8502ZM31.6999 23.9578C31.6999 27.0599 32.5028 29.9234 34.4393 29.9234C36.3286 29.9234 37.1787 27.0599 37.1787 23.9578C37.1787 21.8102 36.7536 19.758 35.8562 18.7081L34.4393 17.9922C32.5028 17.9922 31.6999 20.8557 31.6999 23.9578Z" fill="#FF0099"/>
<path d="M59.3566 42.0932H70.2671V38.5616L74.518 42.0932H85.4285V6.29967L77.8242 0V35.7936H66.9137V9.40178L62.6628 5.87015V35.7936H51.7523L59.3566 42.0932Z" fill="#FF0099"/>
<path d="M91.4081 40.8524C92.9668 42.141 95.0922 42.8091 97.5482 42.8091C99.0596 42.8091 100.524 42.3796 101.705 41.4728L102.508 42.0932H113.371V30.9256C113.371 25.7714 112.143 21.8102 109.309 19.4717L101.988 13.4107C100.477 12.0266 98.3512 11.0721 95.4228 10.6903C98.0678 11.0244 100.146 11.8835 101.705 13.172L101.988 13.4107C105.247 16.1787 105.767 20.808 105.767 24.626V35.7936H94.9033V34.4095C93.7225 35.6981 92.0694 36.5094 89.9439 36.5094C87.913 36.5094 86.0237 36.1754 84.654 35.2686L91.4081 40.8524ZM92.6361 30.162C93.7697 30.162 94.9033 29.303 94.9033 27.5372C94.9033 27.1077 94.9033 26.7259 94.7616 26.4395L94.4309 25.7714C94.4782 25.8191 94.5254 25.8668 94.5254 25.9145C94.5254 25.8668 94.4782 25.7714 94.4309 25.7714C94.0531 25.1987 93.5335 24.9123 92.9668 24.9123C91.7387 24.9123 90.369 26.01 90.369 27.5372C90.369 29.2553 91.5026 30.162 92.6361 30.162ZM87.2045 20.6171C86.8266 20.7125 86.4488 20.8557 86.0709 20.9989C87.299 20.5216 88.6214 20.283 89.9439 20.283C91.9277 20.283 93.6752 20.4739 94.9505 21.1898C94.9977 20.3785 94.9505 19.6149 94.4309 19.1376L94.1003 18.8513C93.9114 18.7081 93.6752 18.5649 93.4391 18.4695H93.4863C93.5808 18.5172 93.6752 18.5649 93.7697 18.6127L93.9114 18.7081C93.8642 18.6604 93.8169 18.6604 93.7697 18.6127L93.4863 18.4218V18.4695C92.9668 18.2309 92.211 18.1354 91.2664 18.1354C88.4325 18.1354 86.2599 19.8535 86.2599 19.8535L87.2045 20.6171Z" fill="#FF0099"/>
<path d="M109.777 35.7936L117.381 42.0932H128.292V40.4229C129.945 41.9501 131.976 42.8091 134.29 42.8091C141.186 42.8091 144.776 36.6526 144.776 30.2575C144.776 26.2009 143.312 22.2397 140.478 19.9012L133.11 13.7447C135.707 16.3696 137.172 20.0444 137.172 23.9578C137.172 30.2575 133.676 36.5094 126.686 36.5094C124.277 36.5094 122.294 35.5549 120.688 34.1232V35.7936H109.777ZM126.686 11.4062C127.584 11.4062 128.575 11.5494 129.52 11.788C129.142 11.6448 128.717 11.5971 128.292 11.5017V6.29967L120.688 0V13.6493C122.294 12.2653 124.277 11.4062 126.686 11.4062ZM120.688 23.9578C120.688 26.7736 122.152 28.1576 123.616 28.1576C125.127 28.1576 126.686 26.7259 126.686 23.9578C126.686 21.2852 125.127 19.8058 123.569 19.8058C122.105 19.8058 120.688 21.1421 120.688 23.9578Z" fill="#FF0099"/>
<path d="M151.396 2.38624L149.695 25.2941H142.186L145.161 27.7758C145.35 27.7758 145.586 27.7281 145.822 27.7281C148.137 27.7281 149.979 29.5893 149.979 31.9756C149.979 34.3141 148.137 36.1754 145.822 36.1754C144.783 36.1754 143.886 35.8413 143.177 35.2686L150.687 41.5205C151.443 42.141 152.388 42.475 153.427 42.475C155.741 42.475 157.583 40.6138 157.583 38.2753C157.583 36.939 156.969 35.7458 156.024 34.9822L151.962 31.5938H157.3L159 8.68591L151.396 2.38624ZM141.713 30.9734C141.76 30.8302 141.808 30.7347 141.808 30.6393L141.713 30.9734ZM143.13 35.2209L143.177 35.2686C143.13 35.2686 143.083 35.2209 143.036 35.1731C143.083 35.2209 143.083 35.2209 143.13 35.2209Z" fill="#FF0099"/>
</svg>
