<svg width="1156" height="301" viewBox="0 0 1156 301" fill="none" xmlns="http://www.w3.org/2000/svg">
<path d="M0 168.769C0 214.554 28.3815 258 94.4938 258C144.913 258 168.953 226.585 169.287 226.585L137.901 185.144C130.221 196.173 118.201 202.189 107.182 201.854C67.7817 201.854 66.78 135.349 105.846 135.349C117.199 135.349 129.219 140.696 135.23 149.051L170.289 115.296C170.289 115.296 145.247 79.5371 95.1615 79.5371C29.3832 79.5371 0 122.649 0 168.769Z" fill="white" fill-opacity="0.47"/>
<path d="M179.357 168.769C179.357 214.554 210.743 258 276.855 258C341.632 258 373.019 214.888 373.019 168.769C373.019 122.983 341.966 79.5371 276.855 79.5371C211.077 79.5371 179.357 122.649 179.357 168.769ZM276.188 126.994C289.544 126.994 295.554 147.046 295.554 168.769C295.554 190.492 289.544 210.544 276.188 210.544C262.498 210.544 256.821 190.492 256.821 168.769C256.821 147.046 262.498 126.994 276.188 126.994Z" fill="white" fill-opacity="0.47"/>
<path d="M582.893 251.65V1H505.762V251.65H582.893ZM475.711 251.65V42.1066H398.58V251.65H475.711Z" fill="white" fill-opacity="0.47"/>
<path d="M606.133 198.178C606.133 235.274 631.176 256.663 668.572 256.663C683.598 256.663 695.284 250.982 703.632 241.958V251.65H780.429V173.447C780.429 130.336 770.078 74.8583 688.606 74.8583C648.872 74.8583 617.486 99.2549 617.486 99.2549L642.528 140.027C642.528 140.027 657.888 127.996 677.922 127.996C701.295 127.996 704.3 137.354 703.966 149.385C694.951 144.372 682.596 143.035 668.572 143.035C639.857 143.035 606.133 159.077 606.133 198.178ZM689.942 175.453C696.954 175.453 703.632 180.8 703.632 193.834C703.632 206.199 695.618 212.215 687.605 212.215C679.591 212.215 671.577 205.865 671.577 193.834C671.577 183.139 681.261 175.453 689.942 175.453Z" fill="white" fill-opacity="0.47"/>
<path d="M808.782 251.65H885.913V239.953C897.265 249.979 911.289 256.663 928.318 256.663C977.735 256.663 1002.44 212.883 1002.44 168.769C1002.44 124.988 978.069 80.8739 928.318 80.8739C911.289 80.8739 897.265 86.8895 885.913 96.5813V1H808.782V251.65ZM885.913 168.769C885.913 149.051 895.93 139.693 906.281 139.693C917.299 139.693 928.318 150.053 928.318 168.769C928.318 188.152 917.299 198.178 906.615 198.178C896.264 198.178 885.913 188.486 885.913 168.769Z" fill="white" fill-opacity="0.47"/>
<path d="M1037.89 178.126H1090.98L1103 17.71H1025.87L1037.89 178.126ZM1033.88 224.914C1033.88 241.29 1046.9 254.324 1063.6 254.324C1079.96 254.324 1092.98 241.29 1092.98 224.914C1092.98 208.204 1079.96 195.17 1063.6 195.17C1046.9 195.17 1033.88 208.204 1033.88 224.914Z" fill="white" fill-opacity="0.47"/>
<path d="M34 238.862L84.3276 280.287C100.659 293.984 123.323 301 149.32 301C174.317 301 207.647 290.644 223.978 269.597L192.649 228.172L141.321 186.079C145.987 181.402 152.653 178.395 160.652 178.395C171.318 178.395 183.316 183.74 189.982 192.092L224.978 158.351C221.312 153.34 216.979 148.663 211.98 144.654L158.986 100.89C163.652 104.899 167.985 109.242 171.318 114.253L136.322 147.994C130.322 139.643 118.324 134.297 106.992 134.297C67.9961 134.297 68.996 200.778 108.325 200.778C119.324 201.112 131.322 195.099 138.988 184.074L170.318 225.499C169.985 225.499 145.987 256.902 95.6597 256.902C69.3293 256.902 48.665 250.555 34 238.862Z" fill="#FF005C"/>
<path d="M263.693 278.951C281.024 293.316 305.021 301 331.352 301C386.012 301 427.341 267.927 427.341 211.802C427.341 182.738 415.675 159.353 397.344 144.32L352.682 107.572C350.683 105.567 348.35 103.563 346.017 101.892L352.682 107.572C368.014 122.605 373.68 145.99 373.68 167.705C373.68 224.163 330.018 256.902 277.691 256.902C253.36 256.902 232.696 252.225 218.364 241.869L263.693 278.951ZM257.693 167.705C257.693 189.42 263.359 209.464 277.024 209.464C290.356 209.464 296.356 189.42 296.356 167.705C296.356 152.671 293.356 138.306 287.023 130.957L277.024 125.946C263.359 125.946 257.693 145.99 257.693 167.705Z" fill="#FF005C"/>
<path d="M452.856 294.653H529.847V269.931L559.844 294.653H636.835V44.0977L583.174 0V250.555H506.183V65.8124L476.187 41.091V250.555H399.195L452.856 294.653Z" fill="#FF005C"/>
<path d="M679.031 285.967C690.03 294.987 705.028 299.664 722.359 299.664C733.025 299.664 743.357 296.657 751.689 290.31L757.355 294.653H834.013V216.479C834.013 180.4 825.347 152.671 805.35 136.302L753.689 93.8746C743.024 84.1865 728.025 77.505 707.361 74.8324C726.025 77.1709 740.69 83.1842 751.689 92.2042L753.689 93.8746C776.686 113.251 780.353 145.656 780.353 172.382V250.555H703.695V240.867C695.362 249.887 683.697 255.566 668.699 255.566C654.367 255.566 641.035 253.228 631.37 246.88L679.031 285.967ZM687.696 211.134C695.696 211.134 703.695 205.121 703.695 192.76C703.695 189.754 703.695 187.081 702.695 185.077L700.362 180.4C700.695 180.734 701.028 181.068 701.028 181.402C701.028 181.068 700.695 180.4 700.362 180.4C697.695 176.391 694.029 174.386 690.03 174.386C681.364 174.386 671.698 182.07 671.698 192.76C671.698 204.787 679.697 211.134 687.696 211.134ZM649.367 144.32C646.701 144.988 644.035 145.99 641.368 146.992C650.034 143.652 659.366 141.981 668.699 141.981C682.697 141.981 695.029 143.317 704.028 148.329C704.361 142.649 704.028 137.304 700.362 133.963L698.029 131.959C696.695 130.957 695.029 129.955 693.362 129.286H693.696C694.362 129.62 695.029 129.955 695.696 130.289L696.695 130.957C696.362 130.623 696.029 130.623 695.696 130.289L693.696 128.952V129.286C690.03 127.616 684.697 126.948 678.031 126.948C658.033 126.948 642.702 138.974 642.702 138.974L649.367 144.32Z" fill="#FF005C"/>
<path d="M808.654 250.555L862.315 294.653H939.306V282.96C950.971 293.65 965.303 299.664 981.634 299.664C1030.3 299.664 1055.63 256.568 1055.63 211.802C1055.63 183.406 1045.29 155.678 1025.3 139.309L973.302 96.2131C991.633 114.587 1001.97 140.311 1001.97 167.705C1001.97 211.802 977.301 255.566 927.974 255.566C910.976 255.566 896.977 248.885 885.645 238.862V250.555H808.654ZM927.974 79.8435C934.306 79.8435 941.306 80.8457 947.972 82.5161C945.305 81.5139 942.306 81.1798 939.306 80.5117V44.0977L885.645 0V95.545C896.977 85.8568 910.976 79.8435 927.974 79.8435ZM885.645 167.705C885.645 187.415 895.977 197.103 906.31 197.103C916.975 197.103 927.974 187.081 927.974 167.705C927.974 148.997 916.975 138.64 905.976 138.64C895.644 138.64 885.645 147.994 885.645 167.705Z" fill="#FF005C"/>
<path d="M1102.34 16.7037L1090.34 177.059H1037.35L1058.34 194.431C1059.68 194.431 1061.34 194.097 1063.01 194.097C1079.34 194.097 1092.34 207.125 1092.34 223.829C1092.34 240.199 1079.34 253.228 1063.01 253.228C1055.68 253.228 1049.35 250.889 1044.35 246.88L1097.34 290.644C1102.67 294.987 1109.34 297.325 1116.67 297.325C1133 297.325 1146 284.296 1146 267.927C1146 258.573 1141.67 250.221 1135 244.876L1106.34 221.157H1144L1156 60.8013L1102.34 16.7037ZM1034.01 216.814C1034.35 215.811 1034.68 215.143 1034.68 214.475L1034.01 216.814ZM1044.01 246.546L1044.35 246.88C1044.01 246.88 1043.68 246.546 1043.35 246.212C1043.68 246.546 1043.68 246.546 1044.01 246.546Z" fill="#FF005C"/>
</svg>
