<svg width="534" height="65" viewBox="0 0 534 65" fill="none" xmlns="http://www.w3.org/2000/svg">
<g style="mix-blend-mode:hard-light" opacity="0.95">
<path d="M11.5207 52.9996L23.1127 62.5036H39.7447V25.7116H50.5447V12.1036L38.9527 2.59961V16.2076H28.1527V52.9996H11.5207ZM11.5207 25.0636V16.2076H0.720703L11.5207 25.0636Z" fill="#FF0099"/>
<path d="M43.257 52.9996L54.849 62.5036H71.481V53.2876L82.713 62.5036H99.345V12.1036L87.753 2.59961V52.9996H71.121V36.0796H59.889V52.9996H43.257ZM71.121 22.4716V11.8156L59.889 2.59961V22.4716H71.121Z" fill="#FF0099"/>
<path d="M94.9366 52.9996L106.529 62.5036H140.081V48.6076L134.825 44.2876H137.633V30.6796L131.585 25.7116H140.081V12.1036L128.489 2.59961V16.2076H111.569V21.1756H126.041V34.7836H111.569V39.8956L128.489 39.1036V52.9996H94.9366Z" fill="#FF0099"/>
<path d="M150.765 52.9996L162.357 62.5036H178.989V47.4556H184.965C195.405 47.4556 202.965 40.2556 202.965 29.8156C202.965 24.0556 200.733 19.2316 196.917 16.1356L186.909 7.92761C196.773 16.8556 191.517 37.9516 173.373 37.9516H167.397V52.9996H150.765ZM167.397 14.6956V26.2156H169.557C176.325 26.1436 176.541 14.6236 169.557 14.6956H167.397Z" fill="#FF0099"/>
<path d="M197.382 52.9996L208.974 62.5036H241.23V48.6076L229.638 39.1036V52.9996H197.382ZM214.014 2.59961V39.8236L225.606 39.3196V12.1036L214.014 2.59961Z" fill="#FF0099"/>
<path d="M231.416 52.9996L243.008 62.5036H259.712L261.944 54.7996H267.632L276.992 62.5036H293.696L274.256 12.1036L262.664 2.59961L282.104 52.9996H265.4L263.168 45.2956H250.352L248.12 52.9996H231.416ZM259.28 31.6876L256.76 23.0476L254.24 31.6876H259.28Z" fill="#FF0099"/>
<path d="M290.099 52.9996L301.691 62.5036H318.323V25.7116H329.123V12.1036L317.531 2.59961V16.2076H306.731V52.9996H290.099ZM290.099 25.0636V16.2076H279.299L290.099 25.0636Z" fill="#FF0099"/>
<path d="M321.835 52.9996L333.427 62.5036H350.059V46.5196H364.531V32.3356L356.467 25.7116H366.979V12.1036L355.387 2.59961V16.2076H338.467V23.9116L352.939 22.8316V37.0156H338.467V52.9996H321.835Z" fill="#FF0099"/>
<path d="M370.292 49.6876L381.02 58.4716C385.412 62.0716 391.1 64.3756 397.364 64.3756C412.052 64.3756 423.644 51.7756 423.644 37.3036C423.644 28.8796 419.756 21.1756 413.636 16.1356L403.124 7.49561C408.596 12.4636 412.052 19.7356 412.052 27.7996C412.052 42.7036 400.244 54.8716 385.772 54.8716C380.012 54.8716 374.468 53.1436 370.292 49.6876L369.428 48.9676C368.78 48.4636 368.204 47.9596 367.628 47.3836C368.492 48.2476 369.356 49.0396 370.292 49.6876ZM385.772 39.8236C386.564 39.8236 387.428 39.6796 388.22 39.3916C388.076 38.7436 388.076 38.0236 388.076 37.3036C388.076 32.7676 390.308 27.2236 394.916 25.7116C394.124 20.0956 390.308 15.7756 385.772 15.7756C380.66 15.7756 376.484 21.1756 376.484 27.7996C376.484 34.4236 380.66 39.8236 385.772 39.8236Z" fill="#FF0099"/>
<path d="M429.544 62.5036H446.176V56.0956L453.952 62.5036H472.096L459.712 44.3596C466.12 41.9836 470.152 35.6476 470.152 28.8796C470.152 23.4796 467.92 19.1596 464.392 16.2076L453.304 7.06361C462.088 14.4076 460.072 30.2476 448.12 34.8556L460.504 52.9996H442.36L434.584 37.3756V52.9996H417.952L429.544 62.5036ZM434.584 24.4156H436.744C443.512 24.3436 443.728 14.6236 436.744 14.6956H434.584V24.4156Z" fill="#FF0099"/>
<path d="M464.851 52.9996L476.443 62.5036H493.075V56.0956L500.923 62.5036H509.419L511.435 57.7516L517.267 62.5036H533.899V12.1036L522.307 2.59961V52.9996H505.675V34.5676L497.827 52.9996H489.331L481.483 34.5676V52.9996H464.851ZM493.579 29.3116L497.179 21.3196L493.075 12.1036L481.483 2.59961L493.579 29.3116Z" fill="#FF0099"/>
<g opacity="0.95">
<path d="M0.720703 2.59954V16.2075H11.5207V52.9995H28.1527V16.2075H38.9527V2.59954H0.720703Z" fill="#FAFF00"/>
<path d="M59.889 52.9995V36.0795H71.121V52.9995H87.753V2.59954H71.121V22.4715H59.889V2.59954H43.257V52.9995H59.889Z" fill="#FAFF00"/>
<path d="M128.489 52.9995V39.1035L111.569 39.8955V34.7835H126.041V21.1755H111.569V16.2075H128.489V2.59954H94.9366V52.9995H128.489Z" fill="#FAFF00"/>
<path d="M150.765 52.9995H167.397V37.9515H173.373C197.421 37.9515 197.421 2.59954 173.373 2.59954H150.765V52.9995ZM167.397 26.2155V14.6955H169.557C176.541 14.6235 176.325 26.1435 169.557 26.2155H167.397Z" fill="#FAFF00"/>
<path d="M214.014 39.8235V2.59954H197.382V52.9995H229.638V39.1035L214.014 39.8235Z" fill="#FAFF00"/>
<path d="M231.416 52.9995H248.12L250.352 45.2955H263.168L265.4 52.9995H282.104L262.664 2.59954H250.856L231.416 52.9995ZM254.24 31.6875L256.76 23.0475L259.28 31.6875H254.24Z" fill="#FAFF00"/>
<path d="M279.299 2.59954V16.2075H290.099V52.9995H306.731V16.2075H317.531V2.59954H279.299Z" fill="#FAFF00"/>
<path d="M321.835 52.9995H338.467V37.0155H352.939V22.8315L338.467 23.9115V16.2075H355.387V2.59954H321.835V52.9995Z" fill="#FAFF00"/>
<path d="M385.772 54.8715C400.244 54.8715 412.052 42.7035 412.052 27.7995C412.052 12.8955 400.244 0.727539 385.772 0.727539C371.3 0.727539 359.492 12.8955 359.492 27.7995C359.492 42.7035 371.3 54.8715 385.772 54.8715ZM376.484 27.7995C376.484 21.1755 380.66 15.7755 385.772 15.7755C390.884 15.7755 395.06 21.1755 395.06 27.7995C395.06 34.4235 390.884 39.8235 385.772 39.8235C380.66 39.8235 376.484 34.4235 376.484 27.7995Z" fill="#FAFF00"/>
<path d="M434.584 52.9995V37.3755L442.36 52.9995H460.504L448.12 34.8555C464.248 28.6635 461.728 2.59954 440.56 2.59954H417.952V52.9995H434.584ZM434.584 24.4155V14.6955H436.744C443.728 14.6235 443.512 24.3435 436.744 24.4155H434.584Z" fill="#FAFF00"/>
<path d="M464.851 2.59954V52.9995H481.483V34.5675L489.331 52.9995H497.827L505.675 34.5675V52.9995H522.307V2.59954H505.675L493.579 29.3115L481.483 2.59954H464.851Z" fill="#FAFF00"/>
</g>
</g>
</svg>
