<svg width="497" height="65" viewBox="0 0 497 65" fill="none" xmlns="http://www.w3.org/2000/svg">
<g style="mix-blend-mode:hard-light" opacity="0.95">
<path d="M11.5207 53.0002L23.1127 62.5042H39.7447V25.7122H50.5447V12.1042L38.9527 2.60024V16.2082H28.1527V53.0002H11.5207ZM11.5207 25.0642V16.2082H0.720703L11.5207 25.0642Z" fill="#FF0099"/>
<path d="M43.257 53.0002L54.849 62.5042H71.481V53.2882L82.713 62.5042H99.345V12.1042L87.753 2.60024V53.0002H71.121V36.0802H59.889V53.0002H43.257ZM71.121 22.4722V11.8162L59.889 2.60024V22.4722H71.121Z" fill="#FF0099"/>
<path d="M94.9366 53.0002L106.529 62.5042H140.081V48.6082L134.825 44.2882H137.633V30.6802L131.585 25.7122H140.081V12.1042L128.489 2.60024V16.2082H111.569V21.1762H126.041V34.7842H111.569V39.8962L128.489 39.1042V53.0002H94.9366Z" fill="#FF0099"/>
<path d="M150.765 53.0002L162.357 62.5042H178.989V47.4562H184.965C195.405 47.4562 202.965 40.2562 202.965 29.8162C202.965 24.0562 200.733 19.2322 196.917 16.1362L186.909 7.92824C196.773 16.8562 191.517 37.9522 173.373 37.9522H167.397V53.0002H150.765ZM167.397 14.6962V26.2162H169.557C176.325 26.1442 176.541 14.6242 169.557 14.6962H167.397Z" fill="#FF0099"/>
<path d="M206.886 49.6882L217.614 58.4722C222.006 62.0722 227.694 64.3762 233.958 64.3762C248.646 64.3762 260.238 51.7762 260.238 37.3042C260.238 28.8802 256.35 21.1762 250.23 16.1362L239.718 7.49624C245.19 12.4642 248.646 19.7362 248.646 27.8002C248.646 42.7042 236.838 54.8722 222.366 54.8722C216.606 54.8722 211.062 53.1442 206.886 49.6882L206.022 48.9682C205.374 48.4642 204.798 47.9602 204.222 47.3842C205.086 48.2482 205.95 49.0402 206.886 49.6882ZM222.366 39.8242C223.158 39.8242 224.022 39.6802 224.814 39.3922C224.67 38.7442 224.67 38.0242 224.67 37.3042C224.67 32.7682 226.902 27.2242 231.51 25.7122C230.718 20.0962 226.902 15.7762 222.366 15.7762C217.254 15.7762 213.078 21.1762 213.078 27.8002C213.078 34.4242 217.254 39.8242 222.366 39.8242Z" fill="#FF0099"/>
<path d="M254.546 53.0002L266.138 62.5042H285.074C299.474 62.5042 309.266 51.2722 309.266 37.3042C309.266 29.1682 305.954 22.0402 300.338 17.4322L289.25 8.28824C284.642 4.47224 279.602 2.60024 273.482 2.60024C278.81 2.67224 283.634 3.96824 287.378 6.84824L289.25 8.28824C294.65 12.7522 297.674 19.8082 297.674 27.8002C297.674 42.1282 287.738 52.8562 273.482 53.0002H254.546ZM271.178 40.9042C283.85 40.2562 283.85 15.3442 271.178 14.6962V40.9042Z" fill="#FF0099"/>
<path d="M328.538 54.8722C322.994 54.8722 317.81 53.0722 313.562 49.9762L311.762 48.5362C312.338 49.0402 312.986 49.4722 313.562 49.9762L323.93 58.4722C328.322 62.0722 333.938 64.3762 340.13 64.3762C347.618 64.3762 353.162 61.5682 358.418 56.3122L349.994 44.4322L338.402 34.9282L346.826 46.8082C341.57 52.0642 336.098 54.8722 328.538 54.8722ZM331.13 40.1842C330.914 39.2482 330.842 38.2402 330.842 37.3042C330.842 31.4722 334.802 24.7042 341.21 24.7042C342.866 24.7042 344.738 25.2802 346.322 26.1442L349.994 29.0962L358.418 17.7922C357.626 17.0002 356.834 16.3522 356.042 15.7042L344.522 6.12824C341.714 3.82424 338.69 2.24024 335.306 1.44824C339.626 2.52824 343.226 4.68824 346.826 8.28824L338.402 19.5922C338.402 19.5922 334.946 15.2002 329.618 15.2002C324.506 15.2002 319.25 20.4562 319.25 27.8002C319.25 35.1442 324.506 40.3282 329.618 40.3282C332.93 40.3282 336.602 38.0242 338.258 35.1442C338.33 35.0722 338.33 35.0002 338.33 35.0002C338.33 35.0722 338.258 35.0722 338.258 35.1442C336.602 37.5922 334.082 39.6082 331.13 40.1842Z" fill="#FF0099"/>
<path d="M349.33 53.0002L360.922 62.5042H377.626L379.858 54.8002H385.546L394.906 62.5042H411.61L392.17 12.1042L380.578 2.60024L400.018 53.0002H383.314L381.082 45.2962H368.266L366.034 53.0002H349.33ZM377.194 31.6882L374.674 23.0482L372.154 31.6882H377.194Z" fill="#FF0099"/>
<path d="M414.104 55.5202C419.216 60.7042 429.296 64.3762 436.568 64.3762C447.008 64.3762 456.008 57.8962 456.008 46.9522C456.008 42.7762 453.92 39.7522 451.112 37.4482L439.52 27.8722H439.448L439.952 28.2322C442.976 30.3922 444.416 33.6322 444.416 37.4482C444.416 48.3202 435.344 54.8722 424.976 54.8722C419.072 54.8722 411.44 52.4242 405.968 48.8962L414.104 55.5202ZM424.76 20.0242C426.128 20.8162 427.856 21.6082 429.584 22.4002C431.168 23.1202 432.896 23.7682 434.336 24.5602C435.2 24.0562 436.352 23.9122 437.144 23.9122C441.68 23.9122 445.424 26.7202 448.736 29.5282L456.008 18.0082C455.432 17.5042 454.856 16.9282 454.28 16.4962L442.976 7.13624L444.416 8.50424L437.144 20.0242C432.68 15.8482 428.504 14.3362 425.624 14.3362C421.448 14.3362 420.152 17.5042 424.76 20.0242ZM410.288 27.8002C410.864 28.3762 411.44 28.8802 412.16 29.3842L422.384 37.8082C423.032 38.2402 423.608 38.6722 424.256 39.0322L426.056 40.0402L425.048 40.3282C424.976 40.4002 424.976 40.4002 424.976 40.4002C426.56 40.1122 427.496 39.3202 427.424 38.3122C427.352 37.5922 426.488 36.8722 425.12 35.7922L423.464 34.8562C423.392 34.7842 423.248 34.7842 423.104 34.7122L421.232 33.7762C420.8 33.5602 420.368 33.3442 419.936 33.2002L419 32.8402C415.688 31.3282 412.664 29.7442 410.288 27.8002ZM438.296 26.9362C438.656 27.1522 438.944 27.4402 439.232 27.6562C438.944 27.3682 438.656 27.1522 438.296 26.9362ZM405.608 48.5362H405.536L405.896 48.8242L405.608 48.5362Z" fill="#FF0099"/>
<path d="M457.724 53.0002L469.316 62.5042H485.948V25.7122H496.748V12.1042L485.156 2.60024V16.2082H474.356V53.0002H457.724ZM457.724 25.0642V16.2082H446.924L457.724 25.0642Z" fill="#FF0099"/>
<path d="M0.720703 2.60051V16.2085H11.5207V53.0005H28.1527V16.2085H38.9527V2.60051H0.720703Z" fill="#FAFF00"/>
<path d="M59.889 53.0005V36.0805H71.121V53.0005H87.753V2.60051H71.121V22.4725H59.889V2.60051H43.257V53.0005H59.889Z" fill="#FAFF00"/>
<path d="M128.489 53.0005V39.1045L111.569 39.8965V34.7845H126.041V21.1765H111.569V16.2085H128.489V2.60051H94.9366V53.0005H128.489Z" fill="#FAFF00"/>
<path d="M150.765 53.0005H167.397V37.9525H173.373C197.421 37.9525 197.421 2.60051 173.373 2.60051H150.765V53.0005ZM167.397 26.2165V14.6965H169.557C176.541 14.6245 176.325 26.1445 169.557 26.2165H167.397Z" fill="#FAFF00"/>
<path d="M222.366 54.8725C236.838 54.8725 248.646 42.7045 248.646 27.8005C248.646 12.8965 236.838 0.728516 222.366 0.728516C207.894 0.728516 196.086 12.8965 196.086 27.8005C196.086 42.7045 207.894 54.8725 222.366 54.8725ZM213.078 27.8005C213.078 21.1765 217.254 15.7765 222.366 15.7765C227.478 15.7765 231.654 21.1765 231.654 27.8005C231.654 34.4245 227.478 39.8245 222.366 39.8245C217.254 39.8245 213.078 34.4245 213.078 27.8005Z" fill="#FAFF00"/>
<path d="M254.546 53.0005H273.482C287.738 52.8565 297.674 42.1285 297.674 27.8005C297.674 13.4725 287.738 2.74452 273.482 2.60051H254.546V53.0005ZM271.178 14.6965C283.85 15.3445 283.85 40.2565 271.178 40.9045V14.6965Z" fill="#FAFF00"/>
<path d="M328.538 54.8725C336.098 54.8725 341.57 52.0645 346.826 46.8085L338.402 34.9285C338.402 34.9285 335.306 40.3285 329.618 40.3285C324.506 40.3285 319.25 35.1445 319.25 27.8005C319.25 20.4565 324.506 15.2005 329.618 15.2005C334.946 15.2005 338.402 19.5925 338.402 19.5925L346.826 8.28851C341.498 2.96051 336.098 0.728516 328.538 0.728516C314.066 0.728516 302.258 13.3285 302.258 27.8005C302.258 42.2725 314.066 54.8725 328.538 54.8725Z" fill="#FAFF00"/>
<path d="M349.33 53.0005H366.034L368.266 45.2965H381.082L383.314 53.0005H400.018L380.578 2.60051H368.77L349.33 53.0005ZM372.154 31.6885L374.674 23.0485L377.194 31.6885H372.154Z" fill="#FAFF00"/>
<path d="M402.512 46.0165C407.624 51.1285 417.704 54.8725 424.976 54.8725C435.344 54.8725 444.416 48.3205 444.416 37.4485C444.416 29.9605 437.792 25.7125 429.584 22.4005C427.856 21.6085 426.128 20.8165 424.76 20.0245C420.152 17.3605 421.448 14.3365 425.624 14.3365C428.504 14.3365 432.68 15.8485 437.144 20.0245L444.416 8.50451C439.304 3.39252 431.888 0.728516 424.616 0.728516C414.176 0.728516 405.104 7.28051 405.104 18.1525C405.104 25.6405 411.872 29.6725 419.936 33.2005C421.736 33.9925 423.464 34.7845 424.832 35.5765C429.152 38.0965 427.64 40.5445 423.392 40.5445C420.008 40.5445 414.968 38.9605 409.784 34.4965L402.512 46.0165Z" fill="#FAFF00"/>
<path d="M446.924 2.60051V16.2085H457.724V53.0005H474.356V16.2085H485.156V2.60051H446.924Z" fill="#FAFF00"/>
</g>
</svg>
